<?xml version="1.0" encoding="utf-8"?>
<!-- Generator: Adobe Illustrator 24.0.2, SVG Export Plug-In . SVG Version: 6.00 Build 0)  -->
<svg version="1.1" id="Слой_1" xmlns="http://www.w3.org/2000/svg" xmlns:xlink="http://www.w3.org/1999/xlink" x="0px" y="0px"
	 viewBox="0 0 24 24" style="enable-background:new 0 0 24 24;" xml:space="preserve">
<style type="text/css">
	.st0{fill:none;stroke:#FFFFFF;stroke-width:2;stroke-linecap:round;stroke-linejoin:round;}
</style>
<path class="st0" d="M21,16V8c0-0.7-0.4-1.4-1-1.7l-7-4c-0.6-0.4-1.4-0.4-2,0l-7,4C3.4,6.6,3,7.3,3,8v8c0,0.7,0.4,1.4,1,1.7l7,4
	c0.6,0.4,1.4,0.4,2,0l7-4C20.6,17.4,21,16.7,21,16z"/>
<polyline class="st0" points="7.6,4.2 12,6.8 16.4,4.2 "/>
<polyline class="st0" points="7.5,19.7 7.5,14.6 3,12 "/>
<polyline class="st0" points="21,12 16.5,14.5 16.5,19.6 "/>
<polyline class="st0" points="3.3,7 12,12 20.7,7 "/>
<line class="st0" x1="12" y1="22" x2="12" y2="12"/>
</svg>
