<svg xmlns="http://www.w3.org/2000/svg" width="23.843" height="34.969" viewBox="0 0 23.843 34.969">
  <metadata><?xpacket begin="﻿" id="W5M0MpCehiHzreSzNTczkc9d"?>
<x:xmpmeta xmlns:x="adobe:ns:meta/" x:xmptk="Adobe XMP Core 5.6-c142 79.160924, 2017/07/13-01:06:39        ">
   <rdf:RDF xmlns:rdf="http://www.w3.org/1999/02/22-rdf-syntax-ns#">
      <rdf:Description rdf:about=""/>
   </rdf:RDF>
</x:xmpmeta>
                                                                                                    
                                                                                                    
                                                                                                    
                                                                                                    
                                                                                                    
                                                                                                    
                                                                                                    
                                                                                                    
                                                                                                    
                                                                                                    
                                                                                                    
                                                                                                    
                                                                                                    
                                                                                                    
                                                                                                    
                                                                                                    
                                                                                                    
                                                                                                    
                                                                                                    
                                                                                                    
                           
<?xpacket end="w"?></metadata>
<defs>
    <style>
      .cls-1 {
        fill: #fff;
        fill-rule: evenodd;
      }
    </style>
  </defs>
  <path id="icon" class="cls-1" d="M303.525,546.555H286.2a3.269,3.269,0,0,1-3.249-3.278V514.863a3.269,3.269,0,0,1,3.249-3.279h17.329a3.267,3.267,0,0,1,3.249,3.279v28.414A3.266,3.266,0,0,1,303.525,546.555Zm1.083-31.692a1.09,1.09,0,0,0-1.083-1.093H286.2a1.09,1.09,0,0,0-1.083,1.093v28.414a1.09,1.09,0,0,0,1.083,1.093h17.329a1.09,1.09,0,0,0,1.083-1.093V514.863Zm-17.329,1.093h15.163V540H287.279V515.956Zm7.581,25.136a1.093,1.093,0,1,1-1.083,1.092A1.089,1.089,0,0,1,294.86,541.092Z" transform="translate(-282.938 -511.594)"/>
</svg>
