<svg xmlns="http://www.w3.org/2000/svg" width="35.469" height="35.5" viewBox="0 0 35.469 35.5">
  <metadata><?xpacket begin="﻿" id="W5M0MpCehiHzreSzNTczkc9d"?>
<x:xmpmeta xmlns:x="adobe:ns:meta/" x:xmptk="Adobe XMP Core 5.6-c142 79.160924, 2017/07/13-01:06:39        ">
   <rdf:RDF xmlns:rdf="http://www.w3.org/1999/02/22-rdf-syntax-ns#">
      <rdf:Description rdf:about=""/>
   </rdf:RDF>
</x:xmpmeta>
                                                                                                    
                                                                                                    
                                                                                                    
                                                                                                    
                                                                                                    
                                                                                                    
                                                                                                    
                                                                                                    
                                                                                                    
                                                                                                    
                                                                                                    
                                                                                                    
                                                                                                    
                                                                                                    
                                                                                                    
                                                                                                    
                                                                                                    
                                                                                                    
                                                                                                    
                                                                                                    
                           
<?xpacket end="w"?></metadata>
<defs>
    <style>
      .cls-1 {
        fill: #f9f9f9;
        fill-rule: evenodd;
      }
    </style>
  </defs>
  <path id="icon" class="cls-1" d="M467.521,539.9v6.652l-6.649-6.652H449.791a4.767,4.767,0,0,1-4.432-4.434v-1.3l3.134-3.135h10.163a7,7,0,0,0,6.649-6.652v-2.218h2.216a4.768,4.768,0,0,1,4.432,4.435v8.87A4.767,4.767,0,0,1,467.521,539.9Zm-8.865-11.087H447.575l-6.649,6.653v-6.653a4.767,4.767,0,0,1-4.432-4.434v-8.87a4.768,4.768,0,0,1,4.432-4.435h17.73a4.769,4.769,0,0,1,4.433,4.435v8.87A4.768,4.768,0,0,1,458.656,528.816Z" transform="translate(-436.5 -511.063)"/>
</svg>
